<svg viewBox="0 0 1000 430" font-family="Space Grotesk, sans-serif" role="img" aria-label="Ponte de metodos: o Teatro do Oprimido no trilho brasileiro e o design holandes no trilho neerlandes encontram-se em tres oficinas, do diagnosticar ao decidir"><polygon points="60.0,42 236.0,42 148.0,16" fill="#007F33" opacity="0.9"/><polygon points="148.0,16 324.0,16 236.0,42" fill="#4FA873" opacity="0.9"/><polygon points="236.0,42 412.0,42 324.0,16" fill="#007F33" opacity="0.9"/><polygon points="324.0,16 500.0,16 412.0,42" fill="#4FA873" opacity="0.9"/><polygon points="412.0,42 588.0,42 500.0,16" fill="#007F33" opacity="0.9"/><polygon points="500.0,16 676.0,16 588.0,42" fill="#4FA873" opacity="0.9"/><polygon points="588.0,42 764.0,42 676.0,16" fill="#007F33" opacity="0.9"/><polygon points="676.0,16 852.0,16 764.0,42" fill="#4FA873" opacity="0.9"/><polygon points="764.0,42 940.0,42 852.0,16" fill="#007F33" opacity="0.9"/><rect x="60" y="16" width="880" height="26" rx="13" fill="none" stroke="#005A24" stroke-width="1.2"/><text x="500" y="34" text-anchor="middle" font-size="12" font-weight="700" fill="#FFFFFF" letter-spacing="1.2">BRASIL · TEATRO DO OPRIMIDO</text><polygon points="60.0,388 236.0,388 148.0,414" fill="#E85D04" opacity="0.9"/><polygon points="148.0,414 324.0,414 236.0,388" fill="#F2934F" opacity="0.9"/><polygon points="236.0,388 412.0,388 324.0,414" fill="#E85D04" opacity="0.9"/><polygon points="324.0,414 500.0,414 412.0,388" fill="#F2934F" opacity="0.9"/><polygon points="412.0,388 588.0,388 500.0,414" fill="#E85D04" opacity="0.9"/><polygon points="500.0,414 676.0,414 588.0,388" fill="#F2934F" opacity="0.9"/><polygon points="588.0,388 764.0,388 676.0,414" fill="#E85D04" opacity="0.9"/><polygon points="676.0,414 852.0,414 764.0,388" fill="#F2934F" opacity="0.9"/><polygon points="764.0,388 940.0,388 852.0,414" fill="#E85D04" opacity="0.9"/><rect x="60" y="388" width="880" height="26" rx="13" fill="none" stroke="#B8460A" stroke-width="1.2"/><text x="500" y="406" text-anchor="middle" font-size="12" font-weight="700" fill="#FFFFFF" letter-spacing="1.2">HOLANDA · DESIGN HOLANDÊS</text><line x1="261" y1="225" x2="392" y2="225" stroke="#E0A500" stroke-width="2.5"/><polygon points="399,225 390,220 390,230" fill="#E0A500"/><line x1="594" y1="225" x2="725" y2="225" stroke="#E0A500" stroke-width="2.5"/><polygon points="732,225 723,220 723,230" fill="#E0A500"/><line x1="167" y1="42" x2="167" y2="68" stroke="#007F33" stroke-opacity="0.45" stroke-width="2"/><rect x="81" y="68" width="172" height="44" rx="9" fill="#D6EBDD" stroke="#007F33" stroke-width="1.4"/><text x="167" y="93" text-anchor="middle" font-size="10.5" font-weight="700" fill="#005A24"><tspan x="167" dy="0">Teatro-Jornal</tspan></text><line x1="167" y1="112" x2="167" y2="186" stroke="#007F33" stroke-width="2.5"/><polygon points="167,190 162,180 172,180" fill="#007F33"/><polygon points="167,182 156,199 178,199" fill="#E0A500" stroke="#9E7400" stroke-width="1.2"/><rect x="77" y="199" width="180" height="62" rx="11" fill="#E0A500" stroke="#9E7400" stroke-width="1.5"/><text x="167" text-anchor="middle" fill="#1A1A1A"><tspan x="167" y="218" font-size="8.5" font-weight="700" letter-spacing="0.6">OFICINA 01</tspan><tspan x="167" dy="17" font-size="12.5" font-weight="700">Diagnosticar</tspan><tspan x="167" dy="14" font-size="9.5">ler o outro</tspan></text><line x1="167" y1="261" x2="167" y2="312" stroke="#E85D04" stroke-width="2.5"/><polygon points="167,261 162,271 172,271" fill="#E85D04"/><rect x="81" y="312" width="172" height="44" rx="9" fill="#FBE3D2" stroke="#E85D04" stroke-width="1.4"/><text x="167" y="330" text-anchor="middle" font-size="10.5" font-weight="700" fill="#B8460A"><tspan x="167" dy="0">Context Mapping</tspan><tspan x="167" dy="12">+ Kleurendenken</tspan></text><line x1="167" y1="356" x2="167" y2="388" stroke="#E85D04" stroke-opacity="0.45" stroke-width="2"/><line x1="500" y1="42" x2="500" y2="68" stroke="#007F33" stroke-opacity="0.45" stroke-width="2"/><rect x="414" y="68" width="172" height="44" rx="9" fill="#D6EBDD" stroke="#007F33" stroke-width="1.4"/><text x="500" y="93" text-anchor="middle" font-size="10.5" font-weight="700" fill="#005A24"><tspan x="500" dy="0">Teatro Fórum</tspan></text><line x1="500" y1="112" x2="500" y2="186" stroke="#007F33" stroke-width="2.5"/><polygon points="500,190 495,180 505,180" fill="#007F33"/><polygon points="500,182 489,199 511,199" fill="#E0A500" stroke="#9E7400" stroke-width="1.2"/><rect x="410" y="199" width="180" height="62" rx="11" fill="#E0A500" stroke="#9E7400" stroke-width="1.5"/><text x="500" text-anchor="middle" fill="#1A1A1A"><tspan x="500" y="218" font-size="8.5" font-weight="700" letter-spacing="0.6">OFICINA 02</tspan><tspan x="500" dy="17" font-size="12.5" font-weight="700">Gerar</tspan><tspan x="500" dy="14" font-size="9.5">encenar o impasse</tspan></text><line x1="500" y1="261" x2="500" y2="312" stroke="#E85D04" stroke-width="2.5"/><polygon points="500,261 495,271 505,271" fill="#E85D04"/><rect x="414" y="312" width="172" height="44" rx="9" fill="#FBE3D2" stroke="#E85D04" stroke-width="1.4"/><text x="500" y="337" text-anchor="middle" font-size="10.5" font-weight="700" fill="#B8460A"><tspan x="500" dy="0">Frame Creation</tspan></text><line x1="500" y1="356" x2="500" y2="388" stroke="#E85D04" stroke-opacity="0.45" stroke-width="2"/><line x1="833" y1="42" x2="833" y2="68" stroke="#007F33" stroke-opacity="0.45" stroke-width="2"/><rect x="747" y="68" width="172" height="44" rx="9" fill="#D6EBDD" stroke="#007F33" stroke-width="1.4"/><text x="833" y="93" text-anchor="middle" font-size="10.5" font-weight="700" fill="#005A24"><tspan x="833" dy="0">Teatro Legislativo</tspan></text><line x1="833" y1="112" x2="833" y2="186" stroke="#007F33" stroke-width="2.5"/><polygon points="833,190 828,180 838,180" fill="#007F33"/><polygon points="833,182 822,199 844,199" fill="#E0A500" stroke="#9E7400" stroke-width="1.2"/><rect x="743" y="199" width="180" height="62" rx="11" fill="#E0A500" stroke="#9E7400" stroke-width="1.5"/><text x="833" text-anchor="middle" fill="#1A1A1A"><tspan x="833" y="218" font-size="8.5" font-weight="700" letter-spacing="0.6">OFICINA 03</tspan><tspan x="833" dy="17" font-size="12.5" font-weight="700">Decidir</tspan><tspan x="833" dy="14" font-size="9.5">propor</tspan></text><line x1="833" y1="261" x2="833" y2="312" stroke="#E85D04" stroke-width="2.5"/><polygon points="833,261 828,271 838,271" fill="#E85D04"/><rect x="747" y="312" width="172" height="44" rx="9" fill="#FBE3D2" stroke="#E85D04" stroke-width="1.4"/><text x="833" y="330" text-anchor="middle" font-size="10.5" font-weight="700" fill="#B8460A"><tspan x="833" dy="0">camada holandesa</tspan><tspan x="833" dy="12">em co-desenho</tspan></text><line x1="833" y1="356" x2="833" y2="388" stroke="#E85D04" stroke-opacity="0.45" stroke-width="2"/></svg>
