<svg viewBox="0 0 1000 430" font-family="Space Grotesk, sans-serif" role="img" aria-label="Ponte de metodos: o Teatro do Oprimido no trilho brasileiro e o design holandes no trilho neerlandes encontram-se em tres oficinas, do diagnosticar ao decidir"><polygon points="60.0,42 236.0,42 148.0,16" fill="#007F33" opacity="0.9"/><polygon points="148.0,16 324.0,16 236.0,42" fill="#4FA873" opacity="0.9"/><polygon points="236.0,42 412.0,42 324.0,16" fill="#007F33" opacity="0.9"/><polygon points="324.0,16 500.0,16 412.0,42" fill="#4FA873" opacity="0.9"/><polygon points="412.0,42 588.0,42 500.0,16" fill="#007F33" opacity="0.9"/><polygon points="500.0,16 676.0,16 588.0,42" fill="#4FA873" opacity="0.9"/><polygon points="588.0,42 764.0,42 676.0,16" fill="#007F33" opacity="0.9"/><polygon points="676.0,16 852.0,16 764.0,42" fill="#4FA873" opacity="0.9"/><polygon points="764.0,42 940.0,42 852.0,16" fill="#007F33" opacity="0.9"/><rect x="60" y="16" width="880" height="26" rx="13" fill="none" stroke="#005A24" stroke-width="1.2"/><text x="500" y="34" text-anchor="middle" font-size="12" font-weight="700" fill="#FFFFFF" letter-spacing="1.2">BRASIL · TEATRO DO OPRIMIDO</text><polygon points="60.0,388 236.0,388 148.0,414" fill="#E85D04" opacity="0.9"/><polygon points="148.0,414 324.0,414 236.0,388" fill="#F2934F" opacity="0.9"/><polygon points="236.0,388 412.0,388 324.0,414" fill="#E85D04" opacity="0.9"/><polygon points="324.0,414 500.0,414 412.0,388" fill="#F2934F" opacity="0.9"/><polygon points="412.0,388 588.0,388 500.0,414" fill="#E85D04" opacity="0.9"/><polygon points="500.0,414 676.0,414 588.0,388" fill="#F2934F" opacity="0.9"/><polygon points="588.0,388 764.0,388 676.0,414" fill="#E85D04" opacity="0.9"/><polygon points="676.0,414 852.0,414 764.0,388" fill="#F2934F" opacity="0.9"/><polygon points="764.0,388 940.0,388 852.0,414" fill="#E85D04" opacity="0.9"/><rect x="60" y="388" width="880" height="26" rx="13" fill="none" stroke="#B8460A" stroke-width="1.2"/><text x="500" y="406" text-anchor="middle" font-size="12" font-weight="700" fill="#FFFFFF" letter-spacing="1.2">HOLANDA · DESIGN HOLANDÊS</text><line x1="261" y1="215" x2="392" y2="215" stroke="#E0A500" stroke-width="2.5"/><polygon points="399,215 390,210 390,220" fill="#E0A500"/><line x1="594" y1="215" x2="725" y2="215" stroke="#E0A500" stroke-width="2.5"/><polygon points="732,215 723,210 723,220" fill="#E0A500"/><clipPath id="wt0"><polygon points="71,60 263,60 173,166 161,166"/></clipPath><g clip-path="url(#wt0)"><polygon points="71.0,166 135.0,166 103.0,60" fill="#007F33" opacity="0.55"/><polygon points="103.0,60 167.0,60 135.0,166" fill="#4FA873" opacity="0.55"/><polygon points="135.0,166 199.0,166 167.0,60" fill="#007F33" opacity="0.55"/><polygon points="167.0,60 231.0,60 199.0,166" fill="#4FA873" opacity="0.55"/><polygon points="199.0,166 263.0,166 231.0,60" fill="#007F33" opacity="0.55"/></g><polygon points="71,60 263,60 173,166 161,166" fill="none" stroke="#007F33" stroke-width="1.8"/><text x="167" y="96" text-anchor="middle" font-size="11.5" font-weight="700" fill="#005A24"><tspan x="167" dy="0">Teatro-Jornal</tspan></text><clipPath id="wb0"><polygon points="161,266 173,266 263,370 71,370"/></clipPath><g clip-path="url(#wb0)"><polygon points="71.0,370 135.0,370 103.0,266" fill="#E85D04" opacity="0.55"/><polygon points="103.0,266 167.0,266 135.0,370" fill="#F2934F" opacity="0.55"/><polygon points="135.0,370 199.0,370 167.0,266" fill="#E85D04" opacity="0.55"/><polygon points="167.0,266 231.0,266 199.0,370" fill="#F2934F" opacity="0.55"/><polygon points="199.0,370 263.0,370 231.0,266" fill="#E85D04" opacity="0.55"/></g><polygon points="161,266 173,266 263,370 71,370" fill="none" stroke="#E85D04" stroke-width="1.8"/><text x="167" y="330" text-anchor="middle" font-size="11" font-weight="700" fill="#B8460A"><tspan x="167" dy="0">Context Mapping</tspan><tspan x="167" dy="13">+ Kleurendenken</tspan></text><polygon points="167,166 265,216 167,266 69,216" fill="#E0A500" stroke="#9E7400" stroke-width="1.8"/><text x="167" text-anchor="middle" fill="#1A1A1A"><tspan x="167" y="203" font-size="8.5" font-weight="700" letter-spacing="0.6">OFICINA 01</tspan><tspan x="167" dy="16" font-size="12.5" font-weight="700">Diagnosticar</tspan><tspan x="167" dy="14" font-size="9" font-weight="500">ler o outro</tspan></text><clipPath id="wt1"><polygon points="404,60 596,60 506,166 494,166"/></clipPath><g clip-path="url(#wt1)"><polygon points="404.0,166 468.0,166 436.0,60" fill="#007F33" opacity="0.55"/><polygon points="436.0,60 500.0,60 468.0,166" fill="#4FA873" opacity="0.55"/><polygon points="468.0,166 532.0,166 500.0,60" fill="#007F33" opacity="0.55"/><polygon points="500.0,60 564.0,60 532.0,166" fill="#4FA873" opacity="0.55"/><polygon points="532.0,166 596.0,166 564.0,60" fill="#007F33" opacity="0.55"/></g><polygon points="404,60 596,60 506,166 494,166" fill="none" stroke="#007F33" stroke-width="1.8"/><text x="500" y="96" text-anchor="middle" font-size="11.5" font-weight="700" fill="#005A24"><tspan x="500" dy="0">Teatro Fórum</tspan></text><clipPath id="wb1"><polygon points="494,266 506,266 596,370 404,370"/></clipPath><g clip-path="url(#wb1)"><polygon points="404.0,370 468.0,370 436.0,266" fill="#E85D04" opacity="0.55"/><polygon points="436.0,266 500.0,266 468.0,370" fill="#F2934F" opacity="0.55"/><polygon points="468.0,370 532.0,370 500.0,266" fill="#E85D04" opacity="0.55"/><polygon points="500.0,266 564.0,266 532.0,370" fill="#F2934F" opacity="0.55"/><polygon points="532.0,370 596.0,370 564.0,266" fill="#E85D04" opacity="0.55"/></g><polygon points="494,266 506,266 596,370 404,370" fill="none" stroke="#E85D04" stroke-width="1.8"/><text x="500" y="336" text-anchor="middle" font-size="11" font-weight="700" fill="#B8460A"><tspan x="500" dy="0">Frame Creation</tspan></text><polygon points="500,166 598,216 500,266 402,216" fill="#E0A500" stroke="#9E7400" stroke-width="1.8"/><text x="500" text-anchor="middle" fill="#1A1A1A"><tspan x="500" y="203" font-size="8.5" font-weight="700" letter-spacing="0.6">OFICINA 02</tspan><tspan x="500" dy="16" font-size="12.5" font-weight="700">Gerar</tspan><tspan x="500" dy="14" font-size="9" font-weight="500">encenar o impasse</tspan></text><clipPath id="wt2"><polygon points="737,60 929,60 839,166 827,166"/></clipPath><g clip-path="url(#wt2)"><polygon points="737.0,166 801.0,166 769.0,60" fill="#007F33" opacity="0.55"/><polygon points="769.0,60 833.0,60 801.0,166" fill="#4FA873" opacity="0.55"/><polygon points="801.0,166 865.0,166 833.0,60" fill="#007F33" opacity="0.55"/><polygon points="833.0,60 897.0,60 865.0,166" fill="#4FA873" opacity="0.55"/><polygon points="865.0,166 929.0,166 897.0,60" fill="#007F33" opacity="0.55"/></g><polygon points="737,60 929,60 839,166 827,166" fill="none" stroke="#007F33" stroke-width="1.8"/><text x="833" y="96" text-anchor="middle" font-size="11.5" font-weight="700" fill="#005A24"><tspan x="833" dy="0">Teatro Legislativo</tspan></text><clipPath id="wb2"><polygon points="827,266 839,266 929,370 737,370"/></clipPath><g clip-path="url(#wb2)"><polygon points="737.0,370 801.0,370 769.0,266" fill="#E85D04" opacity="0.55"/><polygon points="769.0,266 833.0,266 801.0,370" fill="#F2934F" opacity="0.55"/><polygon points="801.0,370 865.0,370 833.0,266" fill="#E85D04" opacity="0.55"/><polygon points="833.0,266 897.0,266 865.0,370" fill="#F2934F" opacity="0.55"/><polygon points="865.0,370 929.0,370 897.0,266" fill="#E85D04" opacity="0.55"/></g><polygon points="827,266 839,266 929,370 737,370" fill="none" stroke="#E85D04" stroke-width="1.8"/><text x="833" y="330" text-anchor="middle" font-size="11" font-weight="700" fill="#B8460A"><tspan x="833" dy="0">camada holandesa</tspan><tspan x="833" dy="13">em co-desenho</tspan></text><polygon points="833,166 931,216 833,266 735,216" fill="#E0A500" stroke="#9E7400" stroke-width="1.8"/><text x="833" text-anchor="middle" fill="#1A1A1A"><tspan x="833" y="203" font-size="8.5" font-weight="700" letter-spacing="0.6">OFICINA 03</tspan><tspan x="833" dy="16" font-size="12.5" font-weight="700">Decidir</tspan><tspan x="833" dy="14" font-size="9" font-weight="500">propor</tspan></text></svg>
