<svg viewBox="0 0 1000 430" font-family="Space Grotesk, sans-serif" role="img" aria-label="Ponte de metodos: o Teatro do Oprimido no trilho brasileiro e o design holandes no trilho neerlandes encontram-se em tres oficinas, do diagnosticar ao decidir"><rect x="60" y="16" width="880" height="26" rx="13.0" fill="#007F33"/><text x="500" y="33.5" text-anchor="middle" font-size="12" font-weight="700" fill="#FFFFFF" letter-spacing="1.2">BRAZILIË · THEATER VAN DE ONDERDRUKTEN</text><rect x="60" y="388" width="880" height="26" rx="13.0" fill="#E85D04"/><text x="500" y="405.5" text-anchor="middle" font-size="12" font-weight="700" fill="#FFFFFF" letter-spacing="1.2">NEDERLAND · NEDERLANDS ONTWERP</text><line x1="261" y1="215" x2="392" y2="215" stroke="#E0A500" stroke-width="2.5"/><polygon points="399,215 390,210 390,220" fill="#E0A500"/><line x1="594" y1="215" x2="725" y2="215" stroke="#E0A500" stroke-width="2.5"/><polygon points="732,215 723,210 723,220" fill="#E0A500"/><polygon points="71,60 263,60 173,166 161,166" fill="#D6EBDD" stroke="#007F33" stroke-width="1.8"/><text x="167" y="96" text-anchor="middle" font-size="11.5" font-weight="700" fill="#005A24"><tspan x="167" dy="0">Krantentheater</tspan></text><polygon points="161,266 173,266 263,370 71,370" fill="#FBE3D2" stroke="#E85D04" stroke-width="1.8"/><text x="167" y="330" text-anchor="middle" font-size="11" font-weight="700" fill="#B8460A"><tspan x="167" dy="0">Context Mapping</tspan><tspan x="167" dy="13">+ kleurendenken</tspan></text><polygon points="167,166 265,216 167,266 69,216" fill="#E0A500" stroke="#9E7400" stroke-width="1.8"/><text x="167" text-anchor="middle" fill="#1A1A1A"><tspan x="167" y="203" font-size="8.5" font-weight="700" letter-spacing="0.6">WORKSHOP 01</tspan><tspan x="167" dy="16" font-size="12.5" font-weight="700">Diagnosticeren</tspan><tspan x="167" dy="14" font-size="9" font-weight="500">de ander lezen</tspan></text><polygon points="404,60 596,60 506,166 494,166" fill="#D6EBDD" stroke="#007F33" stroke-width="1.8"/><text x="500" y="96" text-anchor="middle" font-size="11.5" font-weight="700" fill="#005A24"><tspan x="500" dy="0">Forumtheater</tspan></text><polygon points="494,266 506,266 596,370 404,370" fill="#FBE3D2" stroke="#E85D04" stroke-width="1.8"/><text x="500" y="336" text-anchor="middle" font-size="11" font-weight="700" fill="#B8460A"><tspan x="500" dy="0">Frame Creation</tspan></text><polygon points="500,166 598,216 500,266 402,216" fill="#E0A500" stroke="#9E7400" stroke-width="1.8"/><text x="500" text-anchor="middle" fill="#1A1A1A"><tspan x="500" y="203" font-size="8.5" font-weight="700" letter-spacing="0.6">WORKSHOP 02</tspan><tspan x="500" dy="16" font-size="12.5" font-weight="700">Genereren</tspan><tspan x="500" dy="14" font-size="9" font-weight="500">de impasse spelen</tspan></text><polygon points="737,60 929,60 839,166 827,166" fill="#D6EBDD" stroke="#007F33" stroke-width="1.8"/><text x="833" y="96" text-anchor="middle" font-size="11.5" font-weight="700" fill="#005A24"><tspan x="833" dy="0">Wetgevend Theater</tspan></text><polygon points="827,266 839,266 929,370 737,370" fill="#FBE3D2" stroke="#E85D04" stroke-width="1.8"/><text x="833" y="330" text-anchor="middle" font-size="11" font-weight="700" fill="#B8460A"><tspan x="833" dy="0">Nederlandse laag</tspan><tspan x="833" dy="13">in co-design</tspan></text><polygon points="833,166 931,216 833,266 735,216" fill="#E0A500" stroke="#9E7400" stroke-width="1.8"/><text x="833" text-anchor="middle" fill="#1A1A1A"><tspan x="833" y="203" font-size="8.5" font-weight="700" letter-spacing="0.6">WORKSHOP 03</tspan><tspan x="833" dy="16" font-size="12.5" font-weight="700">Beslissen</tspan><tspan x="833" dy="14" font-size="9" font-weight="500">voorstellen</tspan></text></svg>
