<svg viewBox="0 0 760 352" font-family="Space Grotesk, sans-serif" role="img" aria-label="Teatro Forum: um espect-ator da plateia entra na cena modelo, testa uma atitude, encontra resistencias e reformula; outra pessoa tenta outro caminho"><text x="232" y="30" text-anchor="middle" font-size="11" font-weight="700" fill="#757169">DE MODELSCÈNE</text><rect x="40" y="44" width="384" height="128" rx="10" fill="#FBEFCB" stroke="#E0A500" stroke-width="2"/><rect x="70" y="74" width="150" height="68" rx="8" fill="#FFFFFF" stroke="#9E7400" stroke-width="1.4"/><text x="145" y="102" text-anchor="middle" font-size="11.5" font-weight="700" fill="#1A1A1A"><tspan x="145" dy="0">protagonist</tspan></text><text x="145" y="124" text-anchor="middle" font-size="9" font-weight="400" fill="#3D3D3D">wil iets en krijgt het niet</text><rect x="244" y="74" width="150" height="68" rx="8" fill="#FFFFFF" stroke="#9E7400" stroke-width="1.4"/><text x="319" y="102" text-anchor="middle" font-size="11.5" font-weight="700" fill="#1A1A1A"><tspan x="319" dy="0">tegenspeler</tspan></text><text x="319" y="124" text-anchor="middle" font-size="9" font-weight="400" fill="#3D3D3D">wat het tegenhoudt</text><text x="232" y="284" text-anchor="middle" font-size="11" font-weight="700" fill="#757169">HET PUBLIEK</text><circle cx="72" cy="248" r="12" fill="#E4DFD6"/><circle cx="114" cy="248" r="12" fill="#E4DFD6"/><circle cx="156" cy="248" r="12" fill="#E4DFD6"/><circle cx="198" cy="248" r="12" fill="#E4DFD6"/><circle cx="240" cy="248" r="12" fill="#E85D04"/><circle cx="240" cy="248" r="17" fill="none" stroke="#E85D04" stroke-width="2"/><circle cx="282" cy="248" r="12" fill="#E4DFD6"/><circle cx="324" cy="248" r="12" fill="#E4DFD6"/><circle cx="366" cy="248" r="12" fill="#E4DFD6"/><circle cx="408" cy="248" r="12" fill="#E4DFD6"/><line x1="240" y1="226" x2="240" y2="184" stroke="#E85D04" stroke-width="2.5"/><polygon points="240,178 235,185 245,185" fill="#E85D04"/><rect x="268" y="200" width="168" height="30" rx="15" fill="#FFFFFF" stroke="#E85D04" stroke-width="1.6"/><text x="352" y="220" text-anchor="middle" font-size="10.5" font-weight="700" fill="#B8460A">de toeschouw-speler stapt in</text><line x1="432" y1="108" x2="480" y2="108" stroke="#9E7400" stroke-width="2.5"/><polygon points="486,108 479,103 479,113" fill="#9E7400"/><rect x="496" y="52" width="224" height="34" rx="8" fill="#FFFFFF" stroke="#C9C3B8" stroke-width="1.4"/><text x="608" y="74" text-anchor="middle" font-size="11" font-weight="700" fill="#1A1A1A">beproeft een houding</text><rect x="496" y="100" width="224" height="34" rx="8" fill="#FFFFFF" stroke="#C9C3B8" stroke-width="1.4"/><text x="608" y="122" text-anchor="middle" font-size="11" font-weight="700" fill="#1A1A1A">ziet het effect</text><rect x="496" y="148" width="224" height="34" rx="8" fill="#FFFFFF" stroke="#C9C3B8" stroke-width="1.4"/><text x="608" y="170" text-anchor="middle" font-size="11" font-weight="700" fill="#1A1A1A">stuit op weerstand</text><rect x="496" y="196" width="224" height="34" rx="8" fill="#FFFFFF" stroke="#C9C3B8" stroke-width="1.4"/><text x="608" y="218" text-anchor="middle" font-size="11" font-weight="700" fill="#1A1A1A">stelt de strategie bij</text><line x1="608" y1="86" x2="608" y2="88" stroke="#C9C3B8" stroke-width="2"/><polygon points="608,94 603,87 613,87" fill="#C9C3B8"/><line x1="608" y1="134" x2="608" y2="136" stroke="#C9C3B8" stroke-width="2"/><polygon points="608,142 603,135 613,135" fill="#C9C3B8"/><line x1="608" y1="182" x2="608" y2="184" stroke="#C9C3B8" stroke-width="2"/><polygon points="608,190 603,183 613,183" fill="#C9C3B8"/><path d="M496 213 H466 V69 H496" fill="none" stroke="#E85D04" stroke-width="2" stroke-dasharray="5 4"/><polygon points="502,69 490,64 490,74" fill="#E85D04"/><text transform="rotate(-90 455 145)" x="455" y="145" text-anchor="middle" font-size="9" font-weight="700" fill="#B8460A">een ander, een andere weg</text><rect x="20" y="306" width="720" height="30" rx="15" fill="#1A1A1A"/><text x="380.0" y="325" text-anchor="middle" font-size="11.5" font-weight="600" fill="#FFFFFF">De groep vergelijkt keuzes en gevolgen</text></svg>
