<?xml version="1.0" encoding="UTF-8"?>
<svg id="NL_Branding_Logo" data-name="NL Branding Logo" xmlns="http://www.w3.org/2000/svg" viewBox="0 0 599.62 170.08">
  <defs>
    <style>
      .cls-1 {
        fill: none;
      }

      .cls-1, .cls-2 {
        stroke-width: 0px;
      }

      .cls-2 {
        fill: #f16900;
      }
    </style>
  </defs>
  <g>
    <path class="cls-2" d="M151.12,114.4v-2.09c9.86-2.69,18.13-9.91,18.13-28.68v-31.33c0-8.43.8-16.15,3.27-23.34-2.62-.84-5.87-1.84-12-1.84-11.57,0-20.37,5.88-20.55,20.03v94.16h83.47v-26.9h-72.32Z"/>
    <path class="cls-2" d="M114.63,27.09c-6.13,0-9.09.99-11.71,1.84,2.47,7.19,2.94,14.92,2.94,21.49v30.95c0,11.05,2.77,17.86,6.67,23.47l-2.28,1.51L60.73,28.78h-31.88v112.52h28.85v-47.27c0-8.88-1.17-17.4-3.36-22.69,1.08-.64,2.02-1.19,2.02-1.19,2.96,5.48,5.31,9.7,8.14,13.95l37.26,57.2h33.25l-.02-93.73c0-14.35-8.68-20.48-20.37-20.48Z"/>
  </g>
  <rect class="cls-1" x="0" width="599.62" height="170.08"/>
  <rect class="cls-1" x="0" width="599.62" height="170.08"/>
  <g>
    <path class="cls-2" d="M250.35,107.25h11.16c9.09,0,14.46,3.54,14.46,11.04s-5.37,11.04-14.46,11.04h-5.12v11.96h-6.04v-34.04ZM261.39,124.33c6.16,0,8.3-1.89,8.3-6.04s-2.14-6.04-8.3-6.04h-5v12.08h5Z"/>
    <path class="cls-2" d="M297.26,137.75c-1.4,1.89-4.64,4.15-9.33,4.15-5.37,0-8.54-2.99-8.54-7.56,0-6.47,6.34-7.81,10.68-8.17l6.22-.55v-.73c0-4.15-.67-6.47-5-6.47-3.9,0-5.25,1.89-5.25,5.25h-5.61c.12-8.05,6.28-9.76,11.47-9.76,7.75,0,10.19,3.84,10.19,10.37v11.47c0,1.04.43,1.59,1.53,1.59.73,0,1.59-.24,2.2-.55v4.15c-.85.49-2.44.98-4.21.98-3.6,0-4.33-2.01-4.33-3.78v-.37ZM296.29,129.09l-5.06.55c-3.78.43-6.04,1.71-6.04,4.45,0,2.2,1.46,3.54,4.45,3.54,2.68,0,4.82-1.04,6.65-2.56v-5.98Z"/>
    <path class="cls-2" d="M313.61,101.15h6.65l-7.44,8.24h-2.93l3.72-8.24ZM309.89,114.51h5.86v26.78h-5.86v-26.78Z"/>
    <path class="cls-2" d="M327.21,132.63c.18,3.05,2.62,5.06,6.34,5.06,2.99,0,5.12-1.28,5.12-3.66,0-2.93-3.17-3.29-8.05-4.7-3.84-1.1-8.05-2.62-8.05-7.75,0-5.61,5.19-7.69,10.31-7.69,5.92,0,10.31,2.75,10.68,8.42h-5.73c-.12-2.5-2.01-4.27-5.12-4.27-2.44,0-4.39,1.1-4.39,3.17,0,2.81,3.48,3.11,8.24,4.45,3.9,1.1,7.93,2.81,7.93,7.99,0,6.16-5.61,8.24-11.04,8.24-6.59,0-11.47-3.05-11.96-9.27h5.73Z"/>
    <path class="cls-2" d="M373.27,132.45c-1.04,7.44-7.38,9.46-12.08,9.46-6.41,0-12.51-3.6-12.51-14.03s6.47-13.97,12.32-13.97,12.38,3.11,12.38,13.91v.92h-18.91c.12,5.67,2.44,8.6,6.89,8.6,3.54,0,5.67-1.83,6.22-4.88h5.67ZM367.53,125.25c-.37-4.51-2.68-6.89-6.47-6.89s-6.1,2.38-6.53,6.89h12.99Z"/>
    <path class="cls-2" d="M383.09,132.63c.18,3.05,2.62,5.06,6.34,5.06,2.99,0,5.12-1.28,5.12-3.66,0-2.93-3.17-3.29-8.05-4.7-3.84-1.1-8.05-2.62-8.05-7.75,0-5.61,5.19-7.69,10.31-7.69,5.92,0,10.31,2.75,10.68,8.42h-5.73c-.12-2.5-2.01-4.27-5.12-4.27-2.44,0-4.39,1.1-4.39,3.17,0,2.81,3.48,3.11,8.24,4.45,3.9,1.1,7.93,2.81,7.93,7.99,0,6.16-5.61,8.24-11.04,8.24-6.59,0-11.47-3.05-11.96-9.27h5.73Z"/>
    <path class="cls-2" d="M418.16,107.25h12.99c7.93,0,12.32,3.29,12.32,9.33,0,3.66-1.65,5.86-4.51,7.08,3.72,1.16,5.92,3.66,5.92,7.93,0,6.28-4.58,9.7-12.81,9.7h-13.91v-34.04ZM430.67,121.59c5.06,0,6.59-1.71,6.59-4.76s-1.52-4.7-6.59-4.7h-6.47v9.46h6.47ZM431.46,136.41c5.55,0,7.2-1.83,7.2-5.06s-1.65-5.12-7.2-5.12h-7.26v10.19h7.26Z"/>
    <path class="cls-2" d="M467.21,137.75c-1.4,1.89-4.64,4.15-9.33,4.15-5.37,0-8.54-2.99-8.54-7.56,0-6.47,6.34-7.81,10.68-8.17l6.22-.55v-.73c0-4.15-.67-6.47-5-6.47-3.9,0-5.25,1.89-5.25,5.25h-5.61c.12-8.05,6.28-9.76,11.47-9.76,7.75,0,10.19,3.84,10.19,10.37v11.47c0,1.04.43,1.59,1.53,1.59.73,0,1.59-.24,2.2-.55v4.15c-.85.49-2.44.98-4.21.98-3.6,0-4.33-2.01-4.33-3.78v-.37ZM466.23,129.09l-5.06.55c-3.78.43-6.04,1.71-6.04,4.45,0,2.2,1.46,3.54,4.45,3.54,2.68,0,4.82-1.04,6.65-2.56v-5.98Z"/>
    <path class="cls-2" d="M479.46,100.91h6.59v5.86h-6.59v-5.86ZM479.83,114.51h5.86v26.78h-5.86v-26.78Z"/>
    <path class="cls-2" d="M499.66,127.32l-9.15-12.81h6.89l5.8,8.42,5.61-8.42h6.34l-9.03,12.51,10.19,14.28h-6.89l-6.83-9.88-6.71,9.88h-6.34l10.13-13.97Z"/>
    <path class="cls-2" d="M518.02,127.87c0-10.92,6.83-13.97,12.87-13.97s12.87,3.05,12.87,13.97-6.83,14.03-12.87,14.03-12.87-3.11-12.87-14.03ZM537.84,127.87c0-6.1-2.38-9.09-6.95-9.09s-6.95,2.99-6.95,9.09,2.38,9.15,6.95,9.15,6.95-3.11,6.95-9.15Z"/>
    <path class="cls-2" d="M553.58,132.63c.18,3.05,2.62,5.06,6.34,5.06,2.99,0,5.12-1.28,5.12-3.66,0-2.93-3.17-3.29-8.05-4.7-3.84-1.1-8.05-2.62-8.05-7.75,0-5.61,5.19-7.69,10.31-7.69,5.92,0,10.31,2.75,10.68,8.42h-5.73c-.12-2.5-2.01-4.27-5.12-4.27-2.44,0-4.39,1.1-4.39,3.17,0,2.81,3.48,3.11,8.24,4.45,3.9,1.1,7.93,2.81,7.93,7.99,0,6.16-5.61,8.24-11.04,8.24-6.59,0-11.47-3.05-11.96-9.27h5.73Z"/>
  </g>
</svg>